<svg width="83" height="35" viewBox="0 0 83 35" fill="none" xmlns="http://www.w3.org/2000/svg">
<path d="M0.132566 34.8824C2.30394 26.5529 20.1105 12.4123 33.9112 7.72203C48.8158 2.61931 57.982 2.47947 77.7122 7.19043C77.2279 6.048 76.7324 5.1562 76.4292 4.28708C76.0416 3.31109 75.6418 2.27552 75.4943 1.25034C75.4332 0.95243 75.8636 0.305495 76.2116 0.172113C76.5595 0.0387311 77.2453 0.3328 77.4264 0.606108C79.0929 3.24462 80.6394 5.90773 82.2581 8.61812C82.7536 9.50993 82.5399 10.2987 81.5804 10.8057C77.8739 12.5585 74.1795 14.3709 70.4007 16.0765C69.5369 16.4397 68.4075 16.4228 67.2069 16.6688C67.6424 13.91 69.8645 13.7651 71.291 12.7899C72.7653 11.7428 74.4207 10.969 76.3752 9.82354C70.7091 7.50788 65.2393 6.45574 59.6281 6.23965C39.0575 5.36381 21.8788 13.1054 7.47255 27.3564C5.60449 29.2291 3.96535 31.3033 2.16953 33.2233C1.57025 33.6566 1.03098 34.0775 0.132566 34.8824Z" fill="white" style="fill:white;fill-opacity:1;"/>
</svg>